<?xml version="1.0" standalone="no"?>
<!DOCTYPE svg PUBLIC "-//W3C//DTD SVG 20010904//EN"
 "http://www.w3.org/TR/2001/REC-SVG-20010904/DTD/svg10.dtd">
<svg version="1.0" xmlns="http://www.w3.org/2000/svg"
 width="300.000000pt" height="93.000000pt" viewBox="0 0 300.000000 93.000000"
 preserveAspectRatio="xMidYMid meet">
<metadata>
Created by potrace 1.10, written by Peter Selinger 2001-2011
</metadata>
<g transform="translate(0.000000,93.000000) scale(0.100000,-0.100000)"
fill="#ffffff" stroke="none">
<path d="M2160 860 c-19 -19 -20 -32 -20 -308 0 -226 3 -292 14 -307 11 -15
22 -17 73 -12 67 7 86 13 189 64 177 87 299 236 353 433 11 38 18 75 17 82 -7
38 -19 56 -42 61 -14 2 -146 5 -294 6 -258 2 -270 1 -290 -19z m598 -10 c9 0
11 -10 7 -37 -38 -224 -170 -406 -360 -498 -73 -35 -174 -65 -219 -65 l-26 0
0 298 c0 164 2 301 4 303 3 3 469 2 594 -1z"/>
<path d="M185 860 c-31 -12 -39 -26 -84 -141 -48 -124 -50 -145 -16 -161 29
-13 71 4 80 33 13 40 81 33 114 -12 25 -34 60 -38 86 -9 l18 20 22 -20 c42
-39 95 -13 95 47 0 35 13 43 69 43 51 0 72 24 64 73 -5 32 -3 37 14 37 12 0
27 7 34 17 12 14 15 1 19 -94 4 -90 9 -115 24 -132 18 -20 18 -22 3 -39 -14
-15 -17 -41 -17 -144 0 -136 4 -147 56 -151 31 -2 54 28 54 70 0 25 12 29 98
36 41 3 60 10 82 32 l30 29 0 -77 c0 -69 2 -78 24 -92 27 -18 69 -7 80 20 3 9
6 64 6 122 0 102 1 105 18 90 10 -10 30 -17 43 -17 41 0 49 -18 49 -106 0 -74
2 -84 22 -98 28 -20 39 -20 64 -2 15 12 20 30 24 102 l5 87 32 11 c39 13 52
26 58 54 5 26 -27 52 -65 52 -24 0 -23 2 15 35 46 40 55 42 55 15 0 -25 34
-43 63 -34 12 4 34 20 48 35 35 38 61 36 103 -6 39 -39 41 -39 84 -24 24 8 37
7 59 -5 15 -8 21 -15 13 -16 -31 0 -41 -39 -42 -163 -1 -157 -1 -157 157 -157
96 0 114 3 128 18 20 22 21 42 4 67 -11 14 -29 18 -88 19 -41 1 -79 5 -85 9
-7 4 -12 42 -13 94 -2 74 -5 89 -22 101 -19 13 -19 14 1 39 11 14 20 41 20 59
0 19 4 34 8 34 5 0 32 -25 61 -55 57 -59 86 -68 114 -37 14 15 17 41 17 140 0
109 -2 124 -20 142 -29 29 -57 25 -75 -11 -9 -17 -14 -36 -12 -43 3 -7 1 -19
-4 -27 -7 -11 -18 -4 -52 33 -54 59 -78 72 -111 57 -31 -14 -36 -33 -36 -144
0 -104 -3 -102 -56 33 -38 96 -60 122 -105 122 -34 0 -75 -32 -83 -65 -9 -35
-57 -135 -65 -135 -3 0 -12 10 -19 21 -10 15 -11 24 -3 32 29 29 -8 105 -63
131 -82 39 -172 8 -212 -71 -24 -48 -34 -46 -34 6 0 20 -5 43 -10 51 -7 10
-10 -32 -10 -127 l0 -143 -35 0 -35 0 0 140 0 140 31 0 c17 0 28 4 24 10 -18
28 -64 -3 -74 -50 l-7 -34 -22 36 c-28 46 -60 56 -174 58 -76 1 -90 -2 -108
-20 l-21 -21 -26 21 c-22 17 -40 20 -134 20 -148 0 -149 -1 -149 -152 0 -69
-4 -108 -9 -103 -5 6 -25 48 -44 95 -53 131 -58 138 -90 150 -34 12 -35 12
-62 0z m125 -140 c28 -69 50 -131 50 -137 0 -8 -13 -13 -31 -13 -25 0 -32 6
-45 35 -15 36 -15 36 -72 33 -54 -3 -57 -4 -66 -35 -8 -29 -13 -33 -42 -33
-19 0 -34 3 -34 7 0 3 24 67 52 140 l53 134 43 -3 43 -3 49 -125z m358 99 l-3
-32 -92 2 -93 2 0 -25 c0 -25 2 -26 70 -26 l70 0 0 -30 0 -30 -70 0 -70 0 0
-55 0 -55 -35 0 -35 0 0 140 0 140 131 0 130 0 -3 -31z m297 8 c38 -32 39 -91
2 -123 -15 -13 -27 -26 -27 -29 0 -3 11 -23 25 -45 33 -52 32 -60 -7 -60 -29
0 -37 7 -63 53 -27 46 -35 52 -68 55 l-37 3 0 -55 0 -56 -35 0 -35 0 0 140 0
140 109 0 c100 0 112 -2 136 -23z m422 3 c30 -18 63 -65 63 -90 0 -5 -14 -10
-31 -10 -21 0 -38 9 -56 30 -13 17 -35 30 -47 30 -53 0 -87 -59 -67 -113 21
-54 100 -61 123 -12 9 19 19 25 45 25 38 0 41 -11 13 -57 -25 -41 -68 -63
-124 -63 -36 0 -52 6 -81 31 -68 60 -68 158 0 218 29 25 44 31 83 31 29 0 59
-8 79 -20z m329 -120 c29 -74 54 -136 54 -137 0 -2 -16 -3 -35 -3 -30 0 -37 4
-49 35 -15 34 -17 35 -70 35 -53 0 -55 -1 -67 -35 -11 -30 -17 -35 -46 -35
-18 0 -33 3 -33 7 0 4 24 68 53 141 l52 133 44 -3 43 -3 54 -135z m215 55 c40
-47 74 -85 75 -85 1 0 2 37 1 83 l-2 82 33 3 32 3 0 -140 0 -141 -28 0 c-24 0
-41 15 -98 82 l-69 82 -3 -82 -3 -82 -34 0 -35 0 0 133 c0 74 3 137 7 140 3 4
17 7 29 7 16 0 44 -25 95 -85z m-579 -24 l33 -29 -24 -26 c-55 -58 -128 -3
-79 59 25 32 31 31 70 -4z m-299 -178 c16 -19 16 -21 -3 -38 -11 -10 -20 -27
-20 -37 0 -15 -7 -12 -35 17 -36 35 -36 35 -125 35 -88 0 -101 5 -79 27 6 6
14 26 18 45 10 49 33 46 76 -12 37 -51 58 -60 96 -40 23 13 24 36 5 80 -13 31
-12 36 13 70 l26 37 5 -82 c4 -60 10 -88 23 -102z m113 82 c3 -13 24 -40 45
-60 21 -19 39 -37 39 -40 0 -3 -13 -5 -29 -5 -15 0 -40 -9 -55 -21 l-26 -21
-19 24 c-18 21 -18 25 -4 40 8 9 18 38 20 63 6 49 19 59 29 20z m-191 -150
c36 -35 35 -96 -1 -124 -22 -17 -41 -21 -100 -21 l-74 0 0 -55 0 -55 -35 0
-35 0 0 140 0 140 110 0 c104 0 112 -1 135 -25z m143 -117 l-3 -143 -32 -3
-33 -3 0 145 0 146 35 0 36 0 -3 -142z m320 110 c-3 -32 -4 -32 -50 -29 l-48
3 0 -111 0 -111 -35 0 -35 0 0 110 0 110 -50 0 c-49 0 -50 1 -50 30 l0 30 136
0 135 0 -3 -32z m432 -79 l0 -110 98 2 97 2 3 -32 3 -31 -129 0 c-71 0 -131 2
-133 4 -2 2 -3 65 -1 140 l3 136 30 0 29 0 0 -111z"/>
<path d="M197 740 l-15 -40 34 0 34 0 -15 37 c-9 20 -17 38 -19 40 -1 2 -10
-15 -19 -37z"/>
<path d="M790 765 c0 -26 1 -26 68 -23 59 3 67 5 67 23 0 18 -8 20 -67 23 -67
3 -68 3 -68 -23z"/>
<path d="M1597 740 l-15 -40 34 0 c19 0 34 2 34 4 0 7 -30 76 -34 76 -1 0 -10
-18 -19 -40z"/>
<path d="M800 435 c0 -26 1 -26 68 -23 59 3 67 5 67 23 0 18 -8 20 -67 23 -67
3 -68 3 -68 -23z"/>
<path d="M2873 528 c-80 -163 -247 -324 -414 -399 -27 -13 -48 -28 -46 -33 3
-8 87 -11 258 -11 l254 0 0 249 c0 162 -4 251 -10 253 -6 2 -25 -25 -42 -59z
m27 -228 c0 -157 -1 -170 -19 -180 -24 -12 -320 -13 -340 -1 -10 6 2 19 45 47
84 56 182 151 244 238 29 41 57 73 62 70 4 -3 8 -81 8 -174z"/>
<path d="M131 522 c-50 -25 -74 -63 -79 -125 -10 -120 75 -195 194 -172 71 13
130 105 92 143 -9 9 -9 15 0 24 32 32 -5 110 -64 134 -45 19 -102 18 -143 -4z
m139 -15 c26 -13 70 -71 70 -93 0 -9 -12 -14 -33 -14 -26 0 -36 6 -45 25 -6
13 -24 28 -38 31 -59 15 -108 -48 -85 -109 21 -54 100 -61 123 -12 9 19 19 25
45 25 38 0 41 -11 13 -57 -25 -42 -68 -63 -126 -63 -41 0 -51 5 -85 39 -37 37
-39 42 -39 101 0 59 2 64 39 101 34 35 44 39 87 39 27 0 60 -6 74 -13z m-16
-106 c19 -21 19 -22 -4 -46 -25 -27 -59 -32 -78 -13 -20 20 -14 65 10 82 23
17 41 11 72 -23z"/>
<path d="M468 520 c-15 -11 -36 -50 -53 -97 -16 -43 -35 -89 -42 -103 -33 -64
-1 -114 58 -90 16 7 29 16 29 20 0 17 32 40 56 40 15 0 37 -12 52 -28 34 -37
56 -44 87 -30 29 13 31 33 11 80 -8 18 -29 70 -47 116 -17 46 -41 89 -53 97
-29 21 -69 19 -98 -5z m147 -138 c56 -139 56 -148 4 -140 -16 2 -26 13 -33 36
-9 31 -10 32 -67 32 -57 0 -58 0 -70 -35 -11 -31 -17 -35 -47 -35 -40 0 -41
-12 23 153 l50 128 44 -3 43 -3 53 -133z"/>
<path d="M498 410 l-17 -40 35 0 c19 0 34 2 34 4 0 6 -30 76 -33 76 -1 0 -10
-18 -19 -40z"/>
<path d="M1541 523 c-20 -17 -111 -232 -111 -262 0 -30 19 6 68 129 l50 125
43 3 44 3 50 -128 c64 -165 63 -153 22 -153 -32 0 -37 4 -47 35 -11 35 -12 35
-69 35 -57 0 -58 -1 -67 -32 -8 -29 -15 -34 -49 -38 -36 -5 -37 -6 -15 -13 36
-10 36 -10 74 28 45 45 74 45 114 0 26 -30 35 -35 59 -29 55 13 55 19 8 140
-19 49 -35 93 -35 98 0 5 -11 24 -26 43 -19 26 -32 33 -58 33 -19 0 -43 -8
-55 -17z"/>
<path d="M1576 418 c-21 -49 -21 -48 14 -48 33 0 34 1 15 50 l-13 35 -16 -37z"/>
<path d="M339 162 c-17 -14 -20 -25 -15 -45 11 -45 71 -47 82 -1 11 45 -31 74
-67 46z m46 -32 c0 -29 -32 -41 -41 -16 -9 24 4 48 23 44 12 -2 18 -12 18 -28z"/>
<path d="M987 158 c-15 -21 -17 -22 -27 -5 -6 9 -16 17 -21 17 -6 0 -3 -10 5
-22 9 -12 16 -33 16 -45 0 -13 5 -23 10 -23 6 0 10 7 10 15 0 9 7 30 16 46 19
37 13 48 -9 17z"/>
<path d="M1126 168 c-26 -15 -19 -38 14 -44 17 -4 30 -11 30 -16 0 -6 -13 -8
-30 -4 -33 6 -42 -9 -10 -19 30 -9 60 4 60 26 0 14 -9 21 -30 26 -16 3 -30 10
-30 16 0 5 13 7 30 3 17 -3 29 -2 26 3 -9 14 -42 19 -60 9z"/>
<path d="M1246 167 c-22 -16 -18 -65 7 -81 40 -25 80 52 41 81 -10 7 -21 13
-24 13 -3 0 -14 -6 -24 -13z m43 -21 c15 -18 3 -46 -19 -46 -10 0 -21 7 -24
16 -6 16 9 44 24 44 4 0 13 -6 19 -14z"/>
<path d="M1769 162 c-17 -14 -20 -25 -15 -45 11 -45 71 -47 82 -1 11 45 -31
74 -67 46z m46 -32 c0 -16 -6 -26 -18 -28 -19 -4 -32 20 -23 44 9 25 41 13 41
-16z"/>
<path d="M2015 166 c-16 -12 -17 -16 -6 -30 7 -9 22 -16 32 -16 11 0 19 -5 19
-11 0 -8 -11 -9 -31 -5 -28 5 -30 4 -19 -10 20 -23 64 -14 68 14 3 18 -2 23
-27 28 -17 4 -31 11 -31 17 0 5 13 7 33 3 30 -5 31 -5 13 9 -24 18 -27 18 -51
1z"/>
<path d="M75 131 c0 -22 4 -43 8 -47 4 -4 7 2 7 14 0 16 7 21 33 24 24 2 33 8
35 26 3 20 -1 22 -40 22 l-43 0 0 -39z m70 19 c4 -6 -7 -10 -24 -10 -17 0 -31
5 -31 10 0 6 11 10 24 10 14 0 28 -4 31 -10z"/>
<path d="M200 126 c0 -25 5 -46 10 -46 6 0 10 9 10 20 0 27 24 25 43 -2 l15
-23 0 25 c0 14 2 34 4 45 2 17 -3 20 -39 23 l-43 3 0 -45z"/>
<path d="M450 124 c0 -29 4 -43 11 -39 6 4 8 13 5 21 -4 10 3 14 22 14 32 0
53 16 45 36 -3 9 -20 14 -44 14 l-39 0 0 -46z m70 26 c0 -5 -13 -10 -30 -10
-16 0 -30 5 -30 10 0 6 14 10 30 10 17 0 30 -4 30 -10z"/>
<path d="M572 128 c3 -43 3 -43 46 -46 25 -2 42 1 42 7 0 6 -16 11 -35 11 -19
0 -35 5 -35 10 0 6 11 10 25 10 14 0 25 5 25 10 0 6 -11 10 -25 10 -39 0 -29
18 13 23 33 3 32 4 -11 5 l-48 2 3 -42z"/>
<path d="M701 123 c1 -27 4 -38 6 -25 6 28 39 30 48 2 3 -11 11 -20 16 -20 12
0 11 14 -2 27 -8 8 -8 13 0 17 6 4 11 16 11 27 0 16 -7 19 -40 19 l-40 0 1
-47z m64 27 c4 -6 -7 -10 -24 -10 -17 0 -31 5 -31 10 0 6 11 10 24 10 14 0 28
-4 31 -10z"/>
<path d="M833 163 c12 -3 17 -15 17 -44 0 -21 5 -39 10 -39 6 0 10 18 10 39 0
29 5 41 18 44 9 3 -3 5 -28 5 -25 0 -37 -2 -27 -5z"/>
<path d="M1350 125 c0 -45 0 -45 35 -45 19 0 35 5 35 10 0 6 -11 10 -25 10
-22 0 -25 4 -25 35 0 19 -4 35 -10 35 -5 0 -10 -20 -10 -45z"/>
<path d="M1450 142 c0 -28 26 -62 48 -62 16 0 42 41 42 67 0 35 -18 27 -22 -9
-2 -25 -8 -33 -23 -33 -15 0 -21 8 -23 33 -4 39 -22 43 -22 4z"/>
<path d="M1587 163 c18 -3 23 -13 26 -46 l4 -42 1 42 c2 35 6 42 25 46 12 2 0
4 -28 4 -27 0 -40 -2 -28 -4z"/>
<path d="M1690 131 c0 -22 5 -43 10 -46 6 -4 10 12 10 39 0 25 -4 46 -10 46
-5 0 -10 -18 -10 -39z"/>
<path d="M1880 124 c0 -25 4 -43 9 -40 4 3 6 17 3 31 -6 33 2 32 38 -7 l29
-33 1 48 c0 26 -4 47 -8 47 -5 0 -7 -15 -5 -32 l4 -33 -28 33 c-15 18 -31 32
-35 32 -5 0 -8 -21 -8 -46z"/>
</g>
</svg>
